<svg width="62" height="20" viewBox="0 0 62 20" fill="none" xmlns="http://www.w3.org/2000/svg">
<path d="M5.67974 8.86797C4.94172 8.47497 4.56245 8.14368 4.56245 7.68832C4.56245 7.10889 5.08932 6.73668 5.91207 6.73668C6.86984 6.73668 7.72502 7.12968 7.72502 7.12968L8.3995 5.10167C8.3995 5.10167 7.77929 4.62553 5.95377 4.62553C3.41338 4.62553 1.65272 6.05332 1.65272 8.06054C1.65272 9.19861 2.4748 10.0678 3.57158 10.6881C4.4572 11.1844 4.77359 11.5365 4.77359 12.0535C4.77359 12.5914 4.33078 13.026 3.5087 13.026C2.28352 13.026 1.12651 12.405 1.12651 12.405L0.409668 14.433C0.409668 14.433 1.47864 15.1365 3.27703 15.1365C5.89155 15.1365 7.76804 13.8743 7.76804 11.5982C7.76738 10.3783 6.81887 9.50911 5.67974 8.86797Z" fill="white"/>
<path d="M16.0954 4.6054C14.8094 4.6054 13.7973 5.20562 13.0176 6.11569L12.9752 6.0949L14.0925 0.363613H11.1828L8.35779 14.9507H11.2675L12.2372 9.96448C12.6165 8.08133 13.6073 6.92312 14.5353 6.92312C15.1886 6.92312 15.4421 7.3577 15.4421 7.9787C15.4421 8.3717 15.3998 8.84785 15.3157 9.24084L14.2196 14.9513H17.1293L18.2678 9.05441C18.3942 8.43341 18.4789 7.68899 18.4789 7.19205C18.4776 5.57783 17.6132 4.6054 16.0954 4.6054Z" fill="white"/>
<path d="M25.0556 4.6054C21.5555 4.6054 19.2368 7.70912 19.2368 11.1643C19.2368 13.3781 20.6281 15.1573 23.2427 15.1573C26.6793 15.1573 28.9986 12.1367 28.9986 8.5984C28.9986 6.55026 27.7754 4.6054 25.0556 4.6054ZM23.6219 12.9649C22.6311 12.9649 22.2094 12.1373 22.2094 11.1026C22.2094 9.4682 23.0739 6.79905 24.6552 6.79905C25.6884 6.79905 26.0253 7.6682 26.0253 8.51656C26.0253 10.275 25.1615 12.9649 23.6219 12.9649Z" fill="white"/>
<path d="M36.4411 4.6054C34.4772 4.6054 33.3626 6.30212 33.3626 6.30212H33.3209L33.4896 4.77105H30.9175C30.7911 5.80584 30.5587 7.37783 30.3271 8.55748L28.303 19.0061H31.2127L32.0136 14.7851H32.0772C32.0772 14.7851 32.6742 15.1573 33.7849 15.1573C37.2003 15.1573 39.4349 11.7229 39.4349 8.24633C39.4349 6.32291 38.5704 4.6054 36.4411 4.6054ZM33.6578 13.0058C32.9025 13.0058 32.4558 12.5921 32.4558 12.5921L32.9409 9.92291C33.2785 8.14369 34.227 6.96405 35.2391 6.96405C36.1247 6.96405 36.3987 7.77083 36.3987 8.53669C36.3987 10.3783 35.2814 13.0058 33.6578 13.0058Z" fill="white"/>
<path d="M43.5882 0.508465C42.6609 0.508465 41.9229 1.23275 41.9229 2.16361C41.9229 3.01197 42.4709 3.5914 43.293 3.5914H43.3353C44.2422 3.5914 45.0219 2.99118 45.0431 1.93625C45.0431 1.10868 44.4738 0.508465 43.5882 0.508465Z" fill="white"/>
<path d="M39.5195 14.9507H42.4286L44.411 4.83341H41.4801L39.5195 14.9507Z" fill="white"/>
<path d="M51.8111 4.81262H49.787L49.8923 4.33647C50.0611 3.36404 50.6515 2.4949 51.6212 2.4949C52.1388 2.4949 52.5485 2.63976 52.5485 2.63976L53.1177 0.405183C53.1177 0.405183 52.612 0.157042 51.5364 0.157042C50.5032 0.157042 49.4706 0.446757 48.6903 1.10868C47.6994 1.93626 47.2354 3.13604 47.0037 4.33647L46.9197 4.81262H45.57L45.1484 6.96469H46.498L44.9591 14.9513H47.8688L49.4078 6.96469H51.4107L51.8111 4.81262Z" fill="white"/>
<path d="M58.8107 4.83341C58.8107 4.83341 56.9918 9.33049 56.175 11.7853H56.1326C56.077 10.9947 55.4158 4.83341 55.4158 4.83341H52.3585L54.1092 14.1231C54.1515 14.3297 54.1304 14.4544 54.0456 14.5993C53.7081 15.2404 53.1388 15.8614 52.4644 16.3168C51.9163 16.7098 51.3047 16.9579 50.8202 17.1236L51.6211 19.5446C52.2115 19.4205 53.434 18.9444 54.4673 17.9927C55.7957 16.7721 57.0183 14.889 58.2831 12.3231L61.8462 4.83276H58.8107V4.83341Z" fill="white"/>
</svg>
